<mxfile host="app.diagrams.net" modified="2024-07-08T08:25:31.034Z" agent="Mozilla/5.0 (Windows NT 10.0; Win64; x64) AppleWebKit/537.36 (KHTML, like Gecko) Chrome/126.0.0.0 Safari/537.36" etag="4HiNjI7cRMZ4MLV7A3XI" version="24.6.4" type="github">
  <diagram name="Page-1" id="97916047-d0de-89f5-080d-49f4d83e522f">
    <mxGraphModel dx="842" dy="500" grid="1" gridSize="10" guides="1" tooltips="1" connect="1" arrows="1" fold="1" page="1" pageScale="1.5" pageWidth="1169" pageHeight="827" background="none" math="0" shadow="0">
      <root>
        <mxCell id="0" />
        <mxCell id="1" parent="0" />
        <mxCell id="V7a-ULPV8WUU-a_Sldxb-55" value="Controller" style="rounded=1;whiteSpace=wrap;html=1;" vertex="1" parent="1">
          <mxGeometry x="250" y="140" width="120" height="60" as="geometry" />
        </mxCell>
        <mxCell id="V7a-ULPV8WUU-a_Sldxb-56" value="Service&amp;nbsp;&lt;span style=&quot;background-color: initial;&quot;&gt;(interface)&lt;/span&gt;&lt;div&gt;&lt;span style=&quot;background-color: initial;&quot;&gt;Service(class)&lt;/span&gt;&lt;/div&gt;" style="rounded=1;whiteSpace=wrap;html=1;" vertex="1" parent="1">
          <mxGeometry x="430" y="140" width="120" height="60" as="geometry" />
        </mxCell>
        <mxCell id="V7a-ULPV8WUU-a_Sldxb-57" value="Repository(interface)&lt;div&gt;Repository(class)&lt;/div&gt;" style="rounded=1;whiteSpace=wrap;html=1;" vertex="1" parent="1">
          <mxGeometry x="610" y="140" width="120" height="60" as="geometry" />
        </mxCell>
        <mxCell id="V7a-ULPV8WUU-a_Sldxb-58" value="DB" style="shape=cylinder3;whiteSpace=wrap;html=1;boundedLbl=1;backgroundOutline=1;size=15;" vertex="1" parent="1">
          <mxGeometry x="790" y="120" width="60" height="80" as="geometry" />
        </mxCell>
        <mxCell id="V7a-ULPV8WUU-a_Sldxb-59" value="" style="endArrow=classic;html=1;rounded=0;entryX=0;entryY=0.5;entryDx=0;entryDy=0;" edge="1" parent="1" target="V7a-ULPV8WUU-a_Sldxb-56">
          <mxGeometry width="50" height="50" relative="1" as="geometry">
            <mxPoint x="370" y="170" as="sourcePoint" />
            <mxPoint x="420" y="120" as="targetPoint" />
          </mxGeometry>
        </mxCell>
        <mxCell id="V7a-ULPV8WUU-a_Sldxb-60" value="" style="endArrow=classic;html=1;rounded=0;entryX=0;entryY=0.5;entryDx=0;entryDy=0;" edge="1" parent="1">
          <mxGeometry width="50" height="50" relative="1" as="geometry">
            <mxPoint x="550" y="169.71" as="sourcePoint" />
            <mxPoint x="610" y="169.71" as="targetPoint" />
          </mxGeometry>
        </mxCell>
        <mxCell id="V7a-ULPV8WUU-a_Sldxb-61" value="" style="endArrow=classic;html=1;rounded=0;entryX=0;entryY=0.5;entryDx=0;entryDy=0;" edge="1" parent="1">
          <mxGeometry width="50" height="50" relative="1" as="geometry">
            <mxPoint x="730" y="169.71" as="sourcePoint" />
            <mxPoint x="790" y="169.71" as="targetPoint" />
          </mxGeometry>
        </mxCell>
        <mxCell id="V7a-ULPV8WUU-a_Sldxb-62" value="HTML" style="rounded=1;whiteSpace=wrap;html=1;" vertex="1" parent="1">
          <mxGeometry x="70" y="140" width="120" height="60" as="geometry" />
        </mxCell>
        <mxCell id="V7a-ULPV8WUU-a_Sldxb-63" value="" style="endArrow=classic;html=1;rounded=0;entryX=0;entryY=0.5;entryDx=0;entryDy=0;" edge="1" parent="1">
          <mxGeometry width="50" height="50" relative="1" as="geometry">
            <mxPoint x="190" y="169.71" as="sourcePoint" />
            <mxPoint x="250" y="169.71" as="targetPoint" />
          </mxGeometry>
        </mxCell>
      </root>
    </mxGraphModel>
  </diagram>
</mxfile>
